<svg width="130" height="73" viewBox="0 0 130 73" fill="none" xmlns="http://www.w3.org/2000/svg">
<path d="M20.7207 57.2652H32.5527C32.8645 57.2652 33.1753 57.2237 33.4729 57.1324C35.6869 56.4592 36.4741 54.8887 36.4741 54.8887L38.8912 51.4881C38.9339 51.4273 38.9248 51.3431 38.8709 51.2914C35.3284 47.9283 34.6612 44.5947 34.6612 44.5947C33.8913 42.578 33.938 39.0943 33.9695 38.0865C33.9716 38.0054 33.8659 37.9709 33.8202 38.0379L20.6242 57.0797C20.5694 57.1588 20.6262 57.2652 20.7217 57.2652H20.7207Z" fill="black"/>
<path d="M2.21923 57.146L27.9288 20.1106C27.9521 20.0772 27.9999 20.0721 28.0293 20.1005C28.6356 20.7028 33.8803 26.2923 30.3531 36.1108C30.3531 36.1108 29.3334 38.7125 28.0862 40.4097C28.0862 40.4097 24.3609 46.1564 16.4603 57.2007C16.4309 57.2413 16.3831 57.2666 16.3334 57.2666H2.28321C2.22126 57.2666 2.18469 57.1977 2.22024 57.147H2.21923V57.146Z" fill="black"/>
<path d="M8.22446 16.7181C8.11376 16.7455 8.0386 16.8509 8.04977 16.9634L8.45907 20.9845C8.46313 21.0372 8.38899 21.0545 8.3697 21.0058L6.95696 17.4805C6.92446 17.3994 6.83102 17.3609 6.74977 17.3954L2.56134 19.2792C2.4547 19.3278 2.41102 19.4556 2.46587 19.559L5.25274 24.741L3.27837 41.1254C3.27431 41.165 3.30579 41.1994 3.3454 41.1974L5.87735 41.0879H7.17227C7.67399 41.0879 8.17368 41.02 8.65306 40.875C9.12024 40.7341 9.66056 40.5029 10.1105 40.1257C10.2242 40.0304 10.3227 39.9209 10.4111 39.8013C10.7625 39.3258 11.8482 37.8333 12.6912 36.4392C12.8943 36.1046 13.1249 35.7883 13.3798 35.4912C13.9831 34.7896 15.1876 33.1563 15.8488 30.6783C15.8488 30.6783 16.642 28.0767 16.0752 25.7011C16.0752 25.7011 16.8684 25.8147 17.1945 29.6786C17.1975 29.7242 17.2341 29.7648 17.2798 29.7709C17.3681 29.7831 17.4545 29.7445 17.5042 29.6736L25.2524 18.4011C25.3154 18.3089 25.291 18.1821 25.1956 18.1203C25.1956 18.1203 20.0971 13.8691 8.22446 16.7161V16.7181Z" fill="black"/>
<path d="M48.3539 20.792H52.7607L56.286 33.4707H53.6799L52.9517 30.6815H48.161L47.4328 33.4707H44.8267L48.3519 20.792H48.3539ZM52.3585 28.4722L50.7295 22.2956H50.3842L48.7551 28.4722H52.3585Z" fill="black"/>
<path d="M57.6277 30.7912L59.8499 30.2477C60.0987 31.5161 60.9996 31.9145 62.1107 31.9145C63.2218 31.9145 63.7591 31.4978 63.7591 30.9361C63.7591 30.3744 63.2797 30.121 62.1493 29.9223L61.613 29.832C59.6204 29.4883 57.972 28.7816 57.972 27.0063C57.972 25.231 59.467 24.2354 61.7278 24.2354C63.8545 24.2354 65.3109 25.2138 65.7517 26.6626L63.5102 27.3145C63.299 26.3909 62.648 26.0462 61.7278 26.0462C60.8076 26.0462 60.31 26.3726 60.31 26.8978C60.31 27.4778 60.8462 27.713 61.7278 27.858L62.2641 27.9482C64.4101 28.3102 66.096 28.8901 66.096 30.7739C66.096 32.6577 64.5248 33.7264 62.1107 33.7264C59.6965 33.7264 57.9527 32.676 57.6267 30.7922H57.6277V30.7912Z" fill="black"/>
<path d="M66.9775 24.4878H69.545L71.749 31.805H72.0943L74.2982 24.4878H76.8657L73.8381 33.4719H70.0061L66.9786 24.4878H66.9775Z" fill="black"/>
<path d="M77.8608 30.8459C77.8608 28.9986 79.3934 28.0384 81.5394 28.0384H84.1455V27.5315C84.1455 26.6981 83.6093 26.0827 82.3824 26.0827C81.1555 26.0827 80.6386 26.6626 80.4659 27.4778L78.2437 26.7711C78.7038 25.4125 79.949 24.2354 82.421 24.2354C84.893 24.2354 86.4835 25.449 86.4835 27.6947V31.0456C86.4835 31.4076 86.6754 31.5891 87.0197 31.5891H87.7865V33.4729H86.1768C85.2373 33.4729 84.5477 33.0014 84.5477 32.2775V32.2593H84.1841C84.0115 32.7125 83.4173 33.7264 81.4247 33.7264C79.432 33.7264 77.8608 32.6942 77.8608 30.8459ZM84.1455 29.9223V29.7408H81.7121C80.8112 29.7408 80.275 30.121 80.275 30.7729C80.275 31.4248 80.8112 31.878 81.8462 31.878C83.1878 31.878 84.1455 31.1176 84.1455 29.9223Z" fill="black"/>
<path d="M44.8276 43.5171H47.4337L50.2694 54.6567H50.5375L53.3731 43.5171H55.9792L52.5687 56.1958H48.2381L44.8276 43.5171Z" fill="black"/>
<path d="M56.8221 51.813V51.596C56.8221 48.7703 58.7385 46.9595 61.5742 46.9595C64.4098 46.9595 66.1922 48.8433 66.1922 51.596V52.3747H59.2748C59.3327 53.6065 60.3473 54.4572 61.6889 54.4572C63.0306 54.4572 63.5861 53.8053 63.9111 53.1168L65.8845 54.0952C65.3482 55.0554 64.2178 56.4495 61.6118 56.4495C58.7568 56.4495 56.821 54.6377 56.821 51.813H56.8221ZM63.7395 50.6723C63.6247 49.6402 62.801 48.9518 61.5549 48.9518C60.3087 48.9518 59.4668 49.6402 59.2941 50.6723H63.7395Z" fill="black"/>
<path d="M68.5303 47.2119H70.9058V48.389H71.2511C71.5578 47.7736 72.3236 47.0669 74.0299 47.0669C76.2521 47.0669 77.7278 48.606 77.7278 50.8345V56.196H75.3136V51.016C75.3136 49.6574 74.5854 48.9872 73.2824 48.9872C71.8067 48.9872 70.9444 49.9656 70.9444 51.6314V56.196H68.5303V47.2119Z" fill="black"/>
<path d="M81.7894 54.1668V49.0954H79.4138V47.2116H81.7894V44.4224H84.2035V47.2116H86.8096V49.0954H84.2035V53.7684C84.2035 54.1303 84.3955 54.3118 84.7398 54.3118H86.5791V56.1956H83.8968C82.6323 56.1956 81.7894 55.3987 81.7894 54.1668Z" fill="black"/>
<path d="M89.1089 52.5734V47.2119H91.523V52.3919C91.523 53.7505 92.2512 54.4207 93.5543 54.4207C95.03 54.4207 95.8922 53.4423 95.8922 51.7764V47.2119H98.3064V56.196H95.9308V55.0189H95.5855C95.2788 55.6343 94.512 56.341 92.8068 56.341C90.5846 56.341 89.1089 54.8009 89.1089 52.5734Z" fill="black"/>
<path d="M101.181 47.2118H103.556V48.2257H103.902C104.17 47.5007 104.859 47.1753 105.741 47.1753H106.891V49.2041H105.702C104.476 49.2041 103.595 49.8195 103.595 51.0879V56.1959H101.181V47.2118Z" fill="black"/>
<path d="M108.155 51.813V51.596C108.155 48.7703 110.071 46.9595 112.907 46.9595C115.743 46.9595 117.525 48.8433 117.525 51.596V52.3747H110.608C110.665 53.6065 111.68 54.4572 113.022 54.4572C114.363 54.4572 114.919 53.8053 115.244 53.1168L117.217 54.0952C116.681 55.0554 115.551 56.4495 112.944 56.4495C110.09 56.4495 108.155 54.6377 108.155 51.813ZM115.072 50.6723C114.957 49.6402 114.134 48.9518 112.888 48.9518C111.641 48.9518 110.799 49.6402 110.627 50.6723H115.072Z" fill="black"/>
<path d="M119.326 53.5153L121.548 52.9718C121.797 54.2402 122.698 54.6387 123.809 54.6387C124.92 54.6387 125.456 54.222 125.456 53.6603C125.456 53.0986 124.977 52.8451 123.846 52.6464L123.31 52.5561C121.317 52.2124 119.669 51.5057 119.669 49.7304C119.669 47.9551 121.164 46.9595 123.425 46.9595C125.552 46.9595 127.008 47.9379 127.449 49.3867L125.207 50.0387C124.996 49.115 124.345 48.7713 123.426 48.7713C122.507 48.7713 122.008 49.0967 122.008 49.623C122.008 50.2029 122.544 50.4381 123.426 50.5831L123.962 50.6733C126.108 51.0353 127.794 51.6152 127.794 53.4991C127.794 55.3829 126.223 56.4515 123.809 56.4515C121.395 56.4515 119.651 55.4011 119.325 53.5173V53.5153H119.326Z" fill="black"/>
</svg>
